<svg width="375" height="805" viewBox="0 0 375 805" fill="none" xmlns="http://www.w3.org/2000/svg">
<path d="M266.75 403C266.75 446.492 231.492 481.75 188 481.75C144.508 481.75 109.25 446.492 109.25 403C109.25 359.508 144.508 324.25 188 324.25C231.492 324.25 266.75 359.508 266.75 403ZM188 482.25C231.769 482.25 267.25 446.769 267.25 403C267.25 359.231 231.769 323.75 188 323.75C144.231 323.75 108.75 359.231 108.75 403C108.75 446.769 144.231 482.25 188 482.25ZM299.75 403C299.75 464.718 249.718 514.75 188 514.75C126.282 514.75 76.25 464.718 76.25 403C76.25 341.282 126.282 291.25 188 291.25C249.718 291.25 299.75 341.282 299.75 403ZM188 515.25C249.994 515.25 300.25 464.994 300.25 403C300.25 341.006 249.994 290.75 188 290.75C126.006 290.75 75.75 341.006 75.75 403C75.75 464.994 126.006 515.25 188 515.25ZM331.75 403C331.75 482.391 267.391 546.75 188 546.75C108.609 546.75 44.25 482.391 44.25 403C44.25 323.609 108.609 259.25 188 259.25C267.391 259.25 331.75 323.609 331.75 403ZM188 547.25C267.667 547.25 332.25 482.667 332.25 403C332.25 323.333 267.667 258.75 188 258.75C108.333 258.75 43.75 323.333 43.75 403C43.75 482.667 108.333 547.25 188 547.25ZM365.75 403C365.75 501.169 286.169 580.75 188 580.75C89.8314 580.75 10.25 501.169 10.25 403C10.25 304.831 89.8314 225.25 188 225.25C286.169 225.25 365.75 304.831 365.75 403ZM188 581.25C286.445 581.25 366.25 501.445 366.25 403C366.25 304.555 286.445 224.75 188 224.75C89.5552 224.75 9.75 304.555 9.75 403C9.75 501.445 89.5552 581.25 188 581.25ZM397.75 403C397.75 518.842 303.842 612.75 188 612.75C72.1583 612.75 -21.75 518.842 -21.75 403C-21.75 287.158 72.1583 193.25 188 193.25C303.842 193.25 397.75 287.158 397.75 403ZM188 613.25C304.118 613.25 398.25 519.118 398.25 403C398.25 286.882 304.118 192.75 188 192.75C71.8821 192.75 -22.25 286.882 -22.25 403C-22.25 519.118 71.8821 613.25 188 613.25ZM434.75 403C434.75 539.276 324.276 649.75 188 649.75C51.7237 649.75 -58.75 539.276 -58.75 403C-58.75 266.724 51.7237 156.25 188 156.25C324.276 156.25 434.75 266.724 434.75 403ZM188 650.25C324.552 650.25 435.25 539.552 435.25 403C435.25 266.448 324.552 155.75 188 155.75C51.4476 155.75 -59.25 266.448 -59.25 403C-59.25 539.552 51.4476 650.25 188 650.25ZM470.75 403C470.75 559.159 344.159 685.75 188 685.75C31.8415 685.75 -94.75 559.159 -94.75 403C-94.75 246.841 31.8415 120.25 188 120.25C344.159 120.25 470.75 246.841 470.75 403ZM188 686.25C344.435 686.25 471.25 559.435 471.25 403C471.25 246.565 344.435 119.75 188 119.75C31.5653 119.75 -95.25 246.565 -95.25 403C-95.25 559.435 31.5653 686.25 188 686.25ZM509.75 403C509.75 580.698 365.698 724.75 188 724.75C10.3024 724.75 -133.75 580.698 -133.75 403C-133.75 225.302 10.3024 81.25 188 81.25C365.698 81.25 509.75 225.302 509.75 403ZM188 725.25C365.974 725.25 510.25 580.974 510.25 403C510.25 225.026 365.974 80.75 188 80.75C10.0262 80.75 -134.25 225.026 -134.25 403C-134.25 580.974 10.0262 725.25 188 725.25ZM548.75 402.5C548.75 602.013 387.013 763.75 187.5 763.75C-12.0129 763.75 -173.75 602.013 -173.75 402.5C-173.75 202.987 -12.0129 41.25 187.5 41.25C387.013 41.25 548.75 202.987 548.75 402.5ZM187.5 764.25C387.289 764.25 549.25 602.289 549.25 402.5C549.25 202.711 387.289 40.75 187.5 40.75C-12.289 40.75 -174.25 202.711 -174.25 402.5C-174.25 602.289 -12.289 764.25 187.5 764.25ZM589.75 402.5C589.75 624.657 409.657 804.75 187.5 804.75C-34.6565 804.75 -214.75 624.657 -214.75 402.5C-214.75 180.343 -34.6565 0.25 187.5 0.25C409.657 0.25 589.75 180.343 589.75 402.5Z" stroke="url(#paint0_radial_1201_17621)" stroke-opacity="0.08" stroke-width="0.5"/>
<defs>
<radialGradient id="paint0_radial_1201_17621" cx="0" cy="0" r="1" gradientUnits="userSpaceOnUse" gradientTransform="translate(187.5 402.5) rotate(89.9604) scale(724)">
<stop stop-color="white"/>
<stop offset="1" stop-color="white" stop-opacity="0"/>
</radialGradient>
</defs>
</svg>
